# xmcd CD database file
#
# Track frame offsets:
#	150
#	36843
#	70558
#	95921
#	129259
#	157466
#
# Disc length: 2492 seconds
#
# Revision: 0
# Processed by: cddbd v1.5.1PL2 Copyright (c) Steve Scherf et al.
# Submitted via: CDex 1.51
#
DISCID=5009ba06
DTITLE=Stanley Turrentine - That's Where It's At
DYEAR=1962
DGENRE=Jazz
TTITLE0=Smile, Stacey
TTITLE1=Soft Pedal Blues
TTITLE2=Pia
TTITLE3=We'll See Yaw'll After While, Ya Heah
TTITLE4=Dorene Don't Cry, I
TTITLE5=Light Blue
EXTD=YEAR: 1962
EXTT0=
EXTT1=
EXTT2=
EXTT3=
EXTT4=
EXTT5=
PLAYORDER=
